# xmcd
#
# Track frame offsets: 
#        150
#        22337
#        47760
#        75062
#        96402
#        127029
#        162334
#        184807
#        225617
#
# Disc length: 3449 seconds
#
# Revision: 0
# Processed by: cddbd v1.5.1PL0 Copyright (c) Steve Scherf et al.
# Submitted via: ExactAudioCopy v0.95a5
#
DISCID=6f0d7709
DTITLE=Various Artist - Kagaz Ki Kashti and Other Hits [CD 2)
DYEAR=1999
DGENRE=Ghazals
TTITLE0=Harpal Meri Aankhon Mein (Mehndi Hassan, Salma Agha)
TTITLE1=Us Mod Se Shuru Karein (Jagjit and Chitra Singh)
TTITLE2=Kuchh Door Hamara Saath (Asha Bhosle, Hariharan)
TTITLE3=Diwar-O-Dar Pe Naqsh (Jagjit Singh and Dilraj Kaur)
TTITLE4=Mein Shayar (Harendra Khurana)
TTITLE5=Mujhe Jaane Do (Harendra Khurana)
TTITLE6=Phir Chali Baade Saba (Rochana)
TTITLE7=Sochtey Aur Jagtey (Ghulam Ali)
TTITLE8=Toote Hue Khwabo Ke Liye (Mehdi Hassan)
EXTD=
EXTT0=
EXTT1=
EXTT2=
EXTT3=
EXTT4=
EXTT5=
EXTT6=
EXTT7=
EXTT8=
PLAYORDER=
